<?xml version="1.0" encoding="UTF-8" standalone="no"?>
<!-- Created with Inkscape (http://www.inkscape.org/) -->

<svg
   width="749.75067mm"
   height="207.92458mm"
   viewBox="0 0 749.75067 207.92458"
   version="1.1"
   id="svg1"
   xmlns:xlink="http://www.w3.org/1999/xlink"
   xmlns="http://www.w3.org/2000/svg"
   xmlns:svg="http://www.w3.org/2000/svg">
  <defs
     id="defs1">
    <linearGradient
       id="linearGradient6">
      <stop
         style="stop-color:#5a9fd4;stop-opacity:1;"
         offset="0"
         id="stop7" />
      <stop
         style="stop-color:#ffd43b;stop-opacity:1;"
         offset="1"
         id="stop8" />
    </linearGradient>
    <linearGradient
       id="linearGradient3">
      <stop
         style="stop-color:#5a9fd4;stop-opacity:1;"
         offset="0"
         id="stop2" />
      <stop
         style="stop-color:#49d5bc;stop-opacity:1;"
         offset="1"
         id="stop6" />
    </linearGradient>
    <linearGradient
       xlink:href="#linearGradient6"
       id="linearGradient1"
       gradientUnits="userSpaceOnUse"
       x1="289.0477"
       y1="298.00305"
       x2="471.03503"
       y2="298.00305"
       gradientTransform="translate(-11.112565,6.8792084)" />
    <linearGradient
       xlink:href="#linearGradient6"
       id="linearGradient2"
       gradientUnits="userSpaceOnUse"
       x1="289.0477"
       y1="298.00305"
       x2="471.03503"
       y2="298.00305"
       gradientTransform="translate(-11.112565,6.8792084)" />
    <linearGradient
       xlink:href="#linearGradient6"
       id="linearGradient4"
       gradientUnits="userSpaceOnUse"
       x1="289.0477"
       y1="298.00305"
       x2="471.03503"
       y2="298.00305"
       gradientTransform="translate(-11.112565,6.8792084)" />
    <linearGradient
       xlink:href="#linearGradient3"
       id="linearGradient5"
       gradientUnits="userSpaceOnUse"
       gradientTransform="translate(594.70188,249.45698)"
       x1="289.0477"
       y1="298.00305"
       x2="471.03503"
       y2="298.00305" />
  </defs>
  <g
     id="g10"
     style="display:none"
     transform="translate(-11.112565,-6.8792084)">
    <g
       id="g9"
       style="display:inline">
      <path
         style="font-size:8.81944px;font-family:'.SF Soft Numeric';-inkscape-font-specification:'.SF Soft Numeric, Normal';fill:#646464;stroke-width:0.5;stroke-linecap:round;stroke-linejoin:round"
         d="m 159.28869,194.05837 h -2.29099 v 5.65426 h -0.85266 v -5.65426 h -2.29099 v -0.75792 h 5.43464 z m 0.79237,5.65426 h 0.34451 q 0.0689,0 0.10765,-0.0215 0.0388,-0.0215 0.0603,-0.0603 0.0215,-0.0388 0.0215,-0.10766 v -4.61212 h 0.35312 l -0.83974,-1.24023 2.43309,5.8825 q 0.0258,0.0646 0.0517,0.099 0.0301,0.0301 0.0732,0.0474 0.0431,0.0129 0.11196,0.0129 h 0.31006 q 0.0689,0 0.11197,-0.0129 0.0431,-0.0172 0.0689,-0.0474 0.0301,-0.0345 0.056,-0.099 l 2.4331,-5.8825 -0.83974,1.24023 h 0.35312 v 4.61212 q 0,0.0689 0.0215,0.11197 0.0215,0.0387 0.0603,0.0603 0.0388,0.0172 0.10766,0.0172 h 0.34451 q 0.0689,0 0.10766,-0.0215 0.0388,-0.0215 0.0603,-0.0603 0.0215,-0.0388 0.0215,-0.10766 v -5.83513 q 0,-0.0689 -0.0215,-0.10766 -0.0215,-0.0431 -0.0603,-0.0603 -0.0388,-0.0215 -0.10766,-0.0215 h -0.53399 q -0.0689,0 -0.11196,0.0172 -0.0431,0.0129 -0.0732,0.0474 -0.0258,0.0301 -0.0517,0.0947 l -2.08859,5.07721 h -0.0258 l -2.08858,-5.07721 q -0.0258,-0.0646 -0.056,-0.0947 -0.0301,-0.0344 -0.0732,-0.0474 -0.0388,-0.0172 -0.10766,-0.0172 h -0.53399 q -0.0689,0 -0.11197,0.0215 -0.0388,0.0215 -0.0603,0.0603 -0.0172,0.0388 -0.0172,0.10766 v 5.83513 q 0,0.0689 0.0215,0.11197 0.0215,0.0387 0.0603,0.0603 0.0387,0.0172 0.10766,0.0172 z"
         id="text6"
         aria-label="TM" />
    </g>
  </g>
  <g
     id="layer2"
     style="display:inline"
     transform="translate(-11.112565,-6.8792084)">
    <path
       style="font-size:141.111px;font-family:AppleMyungjo;-inkscape-font-specification:'AppleMyungjo, Normal';display:inline;fill:#646464;stroke-width:0.5;stroke-linecap:round;stroke-linejoin:round"
       d="m 206.88236,90.901456 v -5.231432 h 34.0043 L 271.1739,165.9312 299.25843,85.670024 h 34.69265 v 5.231432 h -10.46286 q -5.64444,0 -5.64444,5.782109 v 80.536515 q 0,4.9561 7.02113,4.9561 h 9.08617 v 5.23143 h -46.53221 v -5.23143 h 9.91219 q 2.61572,0 4.26775,-1.23903 1.7897,-1.37669 1.7897,-3.71707 V 90.763787 l -33.72897,96.643823 h -4.68075 L 228.77177,91.176795 v 73.928395 q 0,9.63685 3.85474,13.35392 3.85474,3.71707 12.80324,3.71707 v 5.23143 h -38.54739 v -5.23143 q 8.81083,0 12.5279,-3.5794 3.71707,-3.57941 3.71707,-12.66558 V 95.71988 q 0,-4.818424 -6.05745,-4.818424 z m 163.00027,30.011904 q 13.21625,0 21.88941,9.49917 8.81083,9.49918 8.81083,24.91814 0,15.14362 -8.9485,24.6428 -8.9485,9.36151 -21.88941,9.36151 -12.94091,0 -21.61407,-9.49918 -8.5355,-9.63685 -8.5355,-24.6428 0,-15.00595 8.5355,-24.6428 8.53549,-9.63684 21.75174,-9.63684 z m 0,4.95609 q -8.39783,0 -13.07858,7.43414 -4.54309,7.29647 -4.54309,21.20106 0,14.73062 4.54309,22.30242 4.54308,7.57181 13.21625,7.57181 8.67316,0 13.21625,-7.70947 4.68075,-7.70948 4.68075,-22.44009 0,-13.9046 -4.81842,-21.0634 -4.68076,-7.29647 -13.21625,-7.29647 z m 35.79394,-40.199426 25.46882,-1.376692 v 93.477428 q 0,1.92737 1.51436,3.16639 1.51436,1.23903 3.85474,1.23903 h 6.74579 v 5.23143 h -36.48235 v -5.23143 h 6.47045 q 6.47046,0 6.47046,-5.78211 V 98.060258 q 0,-3.441732 -2.20271,-5.369101 -2.20271,-1.92737 -6.05745,-1.92737 h -5.78211 z"
       id="path5" />
    <path
       style="font-size:141.111px;font-family:AppleMyungjo;-inkscape-font-specification:'AppleMyungjo, Normal';display:inline;fill:#646464;stroke-width:0.5;stroke-linecap:round;stroke-linejoin:round"
       d="m 448.07867,90.901456 v -5.231432 h 52.58966 q 9.36151,0 15.83196,2.202708 6.47046,2.065039 13.07858,8.260156 15.41896,14.592942 15.41896,40.199422 0,21.75175 -10.3252,34.96799 -10.18752,13.21625 -28.6352,15.55663 -2.06504,0.27534 -5.50677,0.41301 -3.30407,0.13767 -5.36911,0.13767 h -47.08288 v -5.23143 h 9.63685 q 6.60812,0 6.60812,-4.81843 V 95.444542 q 0,-4.543086 -5.78211,-4.543086 z m 48.59725,0 H 485.1117 q -6.19512,0 -6.19512,4.956094 v 81.36253 q 0,4.9561 7.57181,4.9561 h 8.67316 q 17.484,0 25.33115,-10.60054 7.84715,-10.7382 7.84715,-33.5913 0,-24.22979 -7.70948,-35.65634 -7.70948,-11.426544 -23.95445,-11.426544 z"
       id="path8" />
    <path
       style="font-size:141.111px;font-family:AppleMyungjo;-inkscape-font-specification:'AppleMyungjo, Normal';display:inline;fill:#646464;stroke-width:0.5;stroke-linecap:round;stroke-linejoin:round"
       d="m 550.22928,127.79682 v -4.9561 l 23.12844,-1.10135 v 26.01949 q 3.85474,-13.07858 9.08617,-19.54903 5.23143,-6.47046 12.94091,-6.47046 5.23143,0 8.26015,3.30406 3.1664,3.1664 3.1664,8.81084 0,3.85473 -2.06504,6.33278 -2.06504,2.47805 -5.3691,2.47805 -3.02873,0 -4.9561,-2.06504 -1.7897,-2.20271 -1.7897,-5.64444 0,-1.92737 0.96369,-3.99241 0.96368,-2.06504 0.96368,-2.47805 0,-0.27533 -0.55067,-0.55067 -0.13767,0 -0.68835,-0.13767 -5.91978,0 -12.1149,11.56422 -6.05744,11.42654 -6.05744,24.22979 v 13.76692 q 0,4.81843 7.29647,4.81843 h 8.26015 v 5.23143 h -40.06175 v -5.23143 h 6.33278 q 6.7458,0 6.7458,-4.40542 v -41.02544 q 0,-8.9485 -7.84715,-8.9485 z m 60.02388,-4.9561 22.8531,-1.10135 v 42.67747 q 0,7.70948 3.85474,12.25257 3.99241,4.40541 10.32519,4.40541 7.57181,0 12.94091,-6.33278 5.50677,-6.47046 5.50677,-15.6943 v -24.22979 q 0,-4.13008 -2.75338,-5.50677 -2.75339,-1.51436 -8.5355,-1.51436 v -4.9561 l 22.71543,-1.10135 v 53.00267 q 0,7.43414 7.70948,7.43414 h 4.13008 v 4.68075 l -21.75174,0.55068 -1.3767,-12.66557 q -5.78211,6.74579 -11.70188,10.32519 -5.78211,3.44173 -11.83956,3.44173 -9.91219,0 -15.28129,-6.47045 -5.3691,-6.60813 -5.3691,-19.13603 v -28.08453 q 0,-3.99241 -3.02872,-5.50677 -2.89106,-1.51436 -8.39783,-1.51436 z m 85.49255,20.09972 q 0,-9.36151 7.43414,-15.55663 7.43414,-6.33279 18.99835,-6.33279 5.3691,0 9.49918,1.3767 4.13008,1.23902 8.5355,4.13007 3.16639,-3.30406 6.33278,-5.09376 3.30406,-1.92737 6.47046,-1.92737 3.16639,0 5.50677,2.20271 2.34038,2.20271 2.34038,5.50677 0,2.61572 -1.65204,4.26775 -1.51436,1.65203 -3.5794,1.65203 -3.44173,0 -5.23143,-4.68076 -0.82601,-2.2027 -1.92737,-2.2027 -1.10135,0 -2.47804,0.82601 -1.3767,0.82602 -2.61572,2.20271 2.47805,3.44173 3.71707,6.33279 1.37669,2.89105 1.37669,7.1588 0,8.9485 -7.29647,15.55662 -7.29647,6.60813 -17.897,6.60813 h -7.57181 q -6.88347,0 -10.04986,1.37669 -3.16639,1.23902 -3.16639,5.23143 0,3.30407 2.47805,4.40542 2.47804,1.10135 8.12248,1.10135 l 17.07099,-0.27534 q 23.81678,0 23.81678,16.24498 0,9.63685 -8.9485,15.69429 -8.81083,6.05745 -24.50513,6.05745 -13.21625,0 -20.37505,-4.26775 -7.1588,-4.13007 -7.1588,-10.7382 0,-9.49918 15.6943,-12.39023 -13.62926,-3.16639 -13.62926,-12.80324 0,-4.68076 3.02872,-7.84715 3.1664,-3.30406 9.36151,-5.3691 -5.78211,-3.30406 -8.81083,-7.70948 -2.89105,-4.54309 -2.89105,-10.7382 z m 26.43249,-17.62167 q -6.33278,0 -10.32519,4.68076 -3.85474,4.68075 -3.85474,12.80324 0,8.39782 3.85474,13.07858 3.85474,4.68075 10.32519,4.68075 6.33279,0 10.18753,-4.68075 3.85474,-4.68076 3.85474,-13.21625 0,-7.84715 -3.99241,-12.5279 -3.85474,-4.81843 -10.04986,-4.81843 z m 3.85474,62.22651 q -11.56422,0 -17.48399,3.02872 -5.91978,3.02872 -5.91978,8.81083 0,5.09377 4.95609,7.98482 5.09376,3.02872 14.3176,3.02872 11.01355,0 17.484,-3.5794 6.47046,-3.5794 6.47046,-8.9485 0,-10.32519 -19.82438,-10.32519 z"
       id="path9" />
    <g
       id="g14">
      <path
         style="fill:#ffffff;stroke-width:9.3;stroke-linecap:round;stroke-linejoin:round"
         id="path1"
         d="M 75.791026,62.371656 A 18.516619,18.516619 0 0 1 50.352501,68.573987 18.516619,18.516619 0 0 1 44.144869,43.136755 18.516619,18.516619 0 0 1 69.580806,36.923822 18.516619,18.516619 0 0 1 75.79904,62.358463 L 59.969952,52.750908 Z" />
      <g
         id="g12"
         transform="matrix(-1,0,0,1,482.14759,-194.70712)"
         style="display:inline;fill:url(#linearGradient5)">
        <g
           id="g11"
           style="fill:url(#linearGradient4);fill-opacity:1">
          <path
             id="path10"
             style="display:inline;fill:url(#linearGradient1);fill-opacity:1"
             d="m 399.34875,201.59596 c -1.70827,0.049 -3.04555,0.28665 -3.94446,0.7674 -3.29035,2.22483 -0.95493,7.12186 -0.076,9.51105 1.30927,2.50564 2.23553,4.84718 2.88975,7.0931 0.68144,1.68759 1.26988,5.3622 -1.7446,5.55625 -4.26561,-0.65978 -8.74579,-0.88057 -13.18369,-1.0511 -4.65708,-0.0565 -9.08435,0.0241 -13.40435,0.24547 a 67.503952,74.275505 0 0 0 -8.47493,35.82985 67.503952,74.275505 0 0 0 6.44198,31.19241 c 4.05359,-0.10163 7.82753,-0.35253 10.76214,-1.89135 2.96291,-1.26845 4.09855,0.79657 4.81624,3.21995 1.09203,3.93586 -7.14783,-0.27799 -10.72389,4.85604 -1.2995,1.86561 -0.71683,3.31803 0.11523,5.33662 1.12625,2.73221 5.06165,2.36054 7.78454,2.21434 4.71409,-0.74454 9.53926,-0.93424 14.19655,0.23616 1.97772,0.49701 4.00208,0.87954 5.94951,2.49339 5.83159,4.83267 11.67874,-8.13651 2.76779,-9.90482 -2.42927,-0.3813 -4.60984,-1.10013 -6.36602,-2.17817 -1.06516,-1.01361 -9.3397,-8.31167 -3.50986,-12.25868 3.51965,-2.38296 3.35003,-3.76148 5.60947,-3.80855 4.50312,-0.0938 4.89942,3.62586 11.48612,7.11739 2.5525,1.35305 14.71754,3.94666 22.04982,3.73931 5.75797,-0.19058 11.3231,-0.81748 16.7752,-2.0066 4.92364,-1.2081 10.04336,-2.4154 15.30915,-2.4014 4.32564,-4.27184 5.6495,-18.8946 3.47885,-27.91199 5.01324,-6.05033 2.73314,-16.97482 -4.63641,-20.39307 -4.77159,-1.73177 -7.1258,-10.48101 -10.74818,-14.56965 -2.79487,-3.26861 -6.40926,-6.96224 -9.77253,-8.95346 -4.80182,-3.42575 -10.4326,-5.60769 -15.89618,-7.4905 -3.07537,-0.85363 -5.6525,-1.65821 -8.70025,-2.18592 -7.03968,-1.23683 -13.09227,-2.23473 -17.42167,-2.39158 -0.64942,-0.0235 -1.25993,-0.0282 -1.82935,-0.0119 z m -33.33388,22.36711 c -14.67975,1.16923 -27.88977,4.77785 -41.89047,14.39292 -6.75867,5.29892 -15.40333,9.13352 -26.17876,33.27549 a 68.850447,62.573486 52.248525 0 0 12.77803,25.39018 68.850447,62.573486 52.248525 0 0 18.03094,16.53646 c 0.1188,-0.35264 0.21862,-0.7128 0.35502,-1.05833 1.35486,-4.37743 7.02578,-4.57461 10.65464,-3.52072 4.64242,1.63291 5.23388,7.57589 2.58073,11.18278 -2.3152,3.67638 -5.69697,11.18075 1.54874,12.18169 4.4762,0.61836 6.31292,-4.35233 7.22023,-7.27604 1.15273,-2.8752 3.80729,-6.27466 5.65443,-8.51008 2.09442,-2.88231 6.649,-4.69423 6.79804,-8.51421 0.64249,-3.74813 -4.41125,-5.98409 -7.06107,-4.01836 -2.05983,1.25067 -4.84899,2.77483 -6.92567,0.66973 -1.73317,-2.01282 -3.75237,-4.27627 -6.60374,-6.08542 -2.21277,-1.40401 2.30786,-3.34129 3.89744,-4.18424 1.95116,-0.71854 4.22919,-1.50875 6.38566,-2.17041 3.46143,-1.09165 7.15952,-1.32351 10.76575,-1.41903 a 38.724834,42.533836 0 0 1 -14.041,-32.55719 38.724834,42.533836 0 0 1 16.03106,-34.31522 z m 56.07254,5.71955 a 17.510006,17.510006 0 0 1 17.51005,17.51004 17.510006,17.510006 0 0 1 -17.51005,17.51005 17.510006,17.510006 0 0 1 -17.51004,-17.51005 17.510006,17.510006 0 0 1 17.51004,-17.51004 z M 293.2622,283.12897 c -0.33595,0.89482 -0.66536,1.71991 -1.0051,2.65617 -7.72437,22.42795 -1.10604,53.11042 15.56029,76.15918 a 49.468773,54.431156 86.039005 0 0 18.30586,1.62574 49.468773,54.431156 86.039005 0 0 16.9323,-3.81321 c -8.59978,-7.32092 -9.7631,-9.9277 -13.34493,-18.54977 -1.09414,-2.79073 -1.89204,-6.38968 -2.31148,-9.93324 -0.21928,-4.27351 -0.38248,-8.81251 0.26148,-13.1067 a 39.427179,35.896385 52.248525 0 1 -26.03252,-15.59129 39.427179,35.896385 52.248525 0 1 -8.3659,-19.44688 z m 95.24794,36.03501 c -26.33264,-0.46622 -31.56988,30.30095 -16.78503,41.14891 a 18.409509,20.256231 25.102915 0 0 2.41123,-3.97288 18.409509,20.256231 25.102915 0 0 1.68775,-5.40071 c -4.64257,-5.90674 -4.68588,-15.37641 3.12436,-19.25619 6.14964,-2.25545 13.54573,-2.66384 19.51922,0.0739 2.9848,1.25897 4.96355,3.84445 6.19393,6.70864 a 20.344945,18.523009 13.669395 0 1 8.37107,0.35088 20.344945,18.523009 13.669395 0 1 3.86953,1.3534 c -2.59821,-8.49074 -7.56843,-15.52346 -14.43168,-18.28002 -5.17553,-1.80994 -9.82773,-2.65276 -13.96038,-2.72593 z m 17.50229,23.97528 c 0.055,0.32755 0.12143,0.66034 0.16019,0.97927 0.66079,4.44828 0.19535,15.15407 -7.51995,22.8198 a 18.523009,20.344945 19.548673 0 1 0.63355,16.01452 18.523009,20.344945 19.548673 0 1 -2.37608,4.71858 c 1.58205,-0.68085 3.1621,-1.35062 4.76663,-2.14406 7.99578,-3.95376 12.60124,-11.43852 14.13403,-15.08125 3.0823,-7.32523 3.7871,-15.9245 2.54816,-23.90552 a 35.527741,32.288745 13.669395 0 0 -7.20783,-2.55643 35.527741,32.288745 13.669395 0 0 -5.1387,-0.84491 z m -11.45253,2.90835 c -2.42319,0.4017 -2.90651,4.28961 -4.41937,6.83008 -1.46135,3.53522 -9.00195,2.50054 -12.17445,0.23564 a 10.56094,11.599722 25.102915 0 1 -1.15497,4.86224 10.56094,11.599722 25.102915 0 1 -2.7466,3.77754 c 0.82671,0.43228 1.68476,0.82935 2.60862,1.14619 3.92634,1.6876 8.85111,1.4018 12.75995,-0.27441 9.01595,-3.83777 11.58329,-14.87769 6.29264,-16.52198 -0.43401,-0.099 -0.81965,-0.11268 -1.16582,-0.0553 z m -48.00948,16.61914 a 28.378635,31.169978 86.039005 0 1 -20.77702,9.3214 28.378635,31.169978 86.039005 0 1 -10.42521,-0.90951 c 17.68998,18.80128 43.26161,29.38818 73.52626,19.66082 a 32.288745,35.527741 19.548673 0 0 5.46427,-10.18801 32.288745,35.527741 19.548673 0 0 2.16163,-11.7135 c -2.42165,1.90115 -5.38327,3.53539 -9.05216,4.69946 -3.11068,1.13956 -6.52946,1.5815 -10.24589,1.77767 -5.24241,-0.43253 -10.88657,-1.71177 -15.49156,-3.70004 -5.41315,-2.33711 -10.37475,-5.58617 -15.16032,-8.94829 z" />
          <path
             id="path11"
             style="display:inline;fill:url(#linearGradient2);fill-opacity:1;stroke-width:4.66771;stroke-linecap:round;stroke-linejoin:round"
             d="m 418.27752,239.42962 a 7.7302118,7.7302118 0 0 0 -4.28319,0.7207 3.4249678,3.4249678 0 0 1 1.24967,0.65091 3.4249678,3.4249678 0 0 1 0.46456,4.8209 l -2.64298,-2.17796 2.64121,2.18013 a 3.4249678,3.4249678 0 0 1 -4.82095,0.46164 3.4249678,3.4249678 0 0 1 -0.91662,-1.18427 7.7302118,7.7302118 0 0 0 2.4762,8.16704 7.7302118,7.7302118 0 0 0 10.88131,-1.04199 l -5.96173,-4.92088 5.9658,4.91614 a 7.7302118,7.7302118 0 0 0 -1.04837,-10.88078 7.7302118,7.7302118 0 0 0 -4.00491,-1.71158 z" />
        </g>
      </g>
    </g>
  </g>
</svg>
