<?xml version="1.0" encoding="UTF-8" standalone="no"?>
<!-- Created with Inkscape (http://www.inkscape.org/) -->

<svg
   width="758.00403mm"
   height="204.83298mm"
   viewBox="0 0 758.00403 204.83298"
   version="1.1"
   id="svg1"
   xmlns:xlink="http://www.w3.org/1999/xlink"
   xmlns="http://www.w3.org/2000/svg"
   xmlns:svg="http://www.w3.org/2000/svg">
  <defs
     id="defs1">
    <linearGradient
       id="linearGradient6">
      <stop
         style="stop-color:#5a9fd4;stop-opacity:1;"
         offset="0"
         id="stop7" />
      <stop
         style="stop-color:#ffd43b;stop-opacity:1;"
         offset="1"
         id="stop8" />
    </linearGradient>
    <linearGradient
       id="linearGradient3">
      <stop
         style="stop-color:#5a9fd4;stop-opacity:1;"
         offset="0"
         id="stop2" />
      <stop
         style="stop-color:#49d5bc;stop-opacity:1;"
         offset="1"
         id="stop6" />
    </linearGradient>
    <linearGradient
       xlink:href="#linearGradient6"
       id="linearGradient1"
       gradientUnits="userSpaceOnUse"
       x1="289.0477"
       y1="298.00305"
       x2="471.03503"
       y2="298.00305" />
    <linearGradient
       xlink:href="#linearGradient6"
       id="linearGradient2"
       gradientUnits="userSpaceOnUse"
       x1="289.0477"
       y1="298.00305"
       x2="471.03503"
       y2="298.00305" />
    <linearGradient
       xlink:href="#linearGradient6"
       id="linearGradient4"
       gradientUnits="userSpaceOnUse"
       x1="289.0477"
       y1="298.00305"
       x2="471.03503"
       y2="298.00305" />
    <linearGradient
       xlink:href="#linearGradient3"
       id="linearGradient5"
       gradientUnits="userSpaceOnUse"
       gradientTransform="translate(605.81444,242.57777)"
       x1="289.0477"
       y1="298.00305"
       x2="471.03503"
       y2="298.00305" />
  </defs>
  <g
     id="layer2"
     style="display:inline"
     transform="translate(-37.041742,-12.170875)">
    <g
       id="g1"
       transform="translate(6.0002154,5.9997848)">
      <g
         id="g14"
         transform="translate(25.929177,5.2916669)">
        <path
           style="fill:#ffffff;stroke-width:9.3;stroke-linecap:round;stroke-linejoin:round"
           id="path1"
           d="M 75.791026,62.371656 A 18.516619,18.516619 0 0 1 50.352501,68.573987 18.516619,18.516619 0 0 1 44.144869,43.136755 18.516619,18.516619 0 0 1 69.580806,36.923822 18.516619,18.516619 0 0 1 75.79904,62.358463 L 59.969952,52.750908 Z" />
        <g
           id="g12"
           transform="matrix(-1,0,0,1,482.14759,-194.70712)"
           style="display:inline;fill:url(#linearGradient5)">
          <g
             id="g11"
             style="fill:url(#linearGradient4);fill-opacity:1">
            <path
               id="path10"
               style="display:inline;fill:url(#linearGradient1);fill-opacity:1"
               d="m 399.34875,201.59596 c -1.70827,0.049 -3.04555,0.28665 -3.94446,0.7674 -3.29035,2.22483 -0.95493,7.12186 -0.076,9.51105 1.30927,2.50564 2.23553,4.84718 2.88975,7.0931 0.68144,1.68759 1.26988,5.3622 -1.7446,5.55625 -4.26561,-0.65978 -8.74579,-0.88057 -13.18369,-1.0511 -4.65708,-0.0565 -9.08435,0.0241 -13.40435,0.24547 a 67.503952,74.275505 0 0 0 -8.47493,35.82985 67.503952,74.275505 0 0 0 6.44198,31.19241 c 4.05359,-0.10163 7.82753,-0.35253 10.76214,-1.89135 2.96291,-1.26845 4.09855,0.79657 4.81624,3.21995 1.09203,3.93586 -7.14783,-0.27799 -10.72389,4.85604 -1.2995,1.86561 -0.71683,3.31803 0.11523,5.33662 1.12625,2.73221 5.06165,2.36054 7.78454,2.21434 4.71409,-0.74454 9.53926,-0.93424 14.19655,0.23616 1.97772,0.49701 4.00208,0.87954 5.94951,2.49339 5.83159,4.83267 11.67874,-8.13651 2.76779,-9.90482 -2.42927,-0.3813 -4.60984,-1.10013 -6.36602,-2.17817 -1.06516,-1.01361 -9.3397,-8.31167 -3.50986,-12.25868 3.51965,-2.38296 3.35003,-3.76148 5.60947,-3.80855 4.50312,-0.0938 4.89942,3.62586 11.48612,7.11739 2.5525,1.35305 14.71754,3.94666 22.04982,3.73931 5.75797,-0.19058 11.3231,-0.81748 16.7752,-2.0066 4.92364,-1.2081 10.04336,-2.4154 15.30915,-2.4014 4.32564,-4.27184 5.6495,-18.8946 3.47885,-27.91199 5.01324,-6.05033 2.73314,-16.97482 -4.63641,-20.39307 -4.77159,-1.73177 -7.1258,-10.48101 -10.74818,-14.56965 -2.79487,-3.26861 -6.40926,-6.96224 -9.77253,-8.95346 -4.80182,-3.42575 -10.4326,-5.60769 -15.89618,-7.4905 -3.07537,-0.85363 -5.6525,-1.65821 -8.70025,-2.18592 -7.03968,-1.23683 -13.09227,-2.23473 -17.42167,-2.39158 -0.64942,-0.0235 -1.25993,-0.0282 -1.82935,-0.0119 z m -33.33388,22.36711 c -14.67975,1.16923 -27.88977,4.77785 -41.89047,14.39292 -6.75867,5.29892 -15.40333,9.13352 -26.17876,33.27549 a 68.850447,62.573486 52.248525 0 0 12.77803,25.39018 68.850447,62.573486 52.248525 0 0 18.03094,16.53646 c 0.1188,-0.35264 0.21862,-0.7128 0.35502,-1.05833 1.35486,-4.37743 7.02578,-4.57461 10.65464,-3.52072 4.64242,1.63291 5.23388,7.57589 2.58073,11.18278 -2.3152,3.67638 -5.69697,11.18075 1.54874,12.18169 4.4762,0.61836 6.31292,-4.35233 7.22023,-7.27604 1.15273,-2.8752 3.80729,-6.27466 5.65443,-8.51008 2.09442,-2.88231 6.649,-4.69423 6.79804,-8.51421 0.64249,-3.74813 -4.41125,-5.98409 -7.06107,-4.01836 -2.05983,1.25067 -4.84899,2.77483 -6.92567,0.66973 -1.73317,-2.01282 -3.75237,-4.27627 -6.60374,-6.08542 -2.21277,-1.40401 2.30786,-3.34129 3.89744,-4.18424 1.95116,-0.71854 4.22919,-1.50875 6.38566,-2.17041 3.46143,-1.09165 7.15952,-1.32351 10.76575,-1.41903 a 38.724834,42.533836 0 0 1 -14.041,-32.55719 38.724834,42.533836 0 0 1 16.03106,-34.31522 z m 56.07254,5.71955 a 17.510006,17.510006 0 0 1 17.51005,17.51004 17.510006,17.510006 0 0 1 -17.51005,17.51005 17.510006,17.510006 0 0 1 -17.51004,-17.51005 17.510006,17.510006 0 0 1 17.51004,-17.51004 z M 293.2622,283.12897 c -0.33595,0.89482 -0.66536,1.71991 -1.0051,2.65617 -7.72437,22.42795 -1.10604,53.11042 15.56029,76.15918 a 49.468773,54.431156 86.039005 0 0 18.30586,1.62574 49.468773,54.431156 86.039005 0 0 16.9323,-3.81321 c -8.59978,-7.32092 -9.7631,-9.9277 -13.34493,-18.54977 -1.09414,-2.79073 -1.89204,-6.38968 -2.31148,-9.93324 -0.21928,-4.27351 -0.38248,-8.81251 0.26148,-13.1067 a 39.427179,35.896385 52.248525 0 1 -26.03252,-15.59129 39.427179,35.896385 52.248525 0 1 -8.3659,-19.44688 z m 95.24794,36.03501 c -26.33264,-0.46622 -31.56988,30.30095 -16.78503,41.14891 a 18.409509,20.256231 25.102915 0 0 2.41123,-3.97288 18.409509,20.256231 25.102915 0 0 1.68775,-5.40071 c -4.64257,-5.90674 -4.68588,-15.37641 3.12436,-19.25619 6.14964,-2.25545 13.54573,-2.66384 19.51922,0.0739 2.9848,1.25897 4.96355,3.84445 6.19393,6.70864 a 20.344945,18.523009 13.669395 0 1 8.37107,0.35088 20.344945,18.523009 13.669395 0 1 3.86953,1.3534 c -2.59821,-8.49074 -7.56843,-15.52346 -14.43168,-18.28002 -5.17553,-1.80994 -9.82773,-2.65276 -13.96038,-2.72593 z m 17.50229,23.97528 c 0.055,0.32755 0.12143,0.66034 0.16019,0.97927 0.66079,4.44828 0.19535,15.15407 -7.51995,22.8198 a 18.523009,20.344945 19.548673 0 1 0.63355,16.01452 18.523009,20.344945 19.548673 0 1 -2.37608,4.71858 c 1.58205,-0.68085 3.1621,-1.35062 4.76663,-2.14406 7.99578,-3.95376 12.60124,-11.43852 14.13403,-15.08125 3.0823,-7.32523 3.7871,-15.9245 2.54816,-23.90552 a 35.527741,32.288745 13.669395 0 0 -7.20783,-2.55643 35.527741,32.288745 13.669395 0 0 -5.1387,-0.84491 z m -11.45253,2.90835 c -2.42319,0.4017 -2.90651,4.28961 -4.41937,6.83008 -1.46135,3.53522 -9.00195,2.50054 -12.17445,0.23564 a 10.56094,11.599722 25.102915 0 1 -1.15497,4.86224 10.56094,11.599722 25.102915 0 1 -2.7466,3.77754 c 0.82671,0.43228 1.68476,0.82935 2.60862,1.14619 3.92634,1.6876 8.85111,1.4018 12.75995,-0.27441 9.01595,-3.83777 11.58329,-14.87769 6.29264,-16.52198 -0.43401,-0.099 -0.81965,-0.11268 -1.16582,-0.0553 z m -48.00948,16.61914 a 28.378635,31.169978 86.039005 0 1 -20.77702,9.3214 28.378635,31.169978 86.039005 0 1 -10.42521,-0.90951 c 17.68998,18.80128 43.26161,29.38818 73.52626,19.66082 a 32.288745,35.527741 19.548673 0 0 5.46427,-10.18801 32.288745,35.527741 19.548673 0 0 2.16163,-11.7135 c -2.42165,1.90115 -5.38327,3.53539 -9.05216,4.69946 -3.11068,1.13956 -6.52946,1.5815 -10.24589,1.77767 -5.24241,-0.43253 -10.88657,-1.71177 -15.49156,-3.70004 -5.41315,-2.33711 -10.37475,-5.58617 -15.16032,-8.94829 z" />
            <path
               id="path11"
               style="display:inline;fill:url(#linearGradient2);fill-opacity:1;stroke-width:4.66771;stroke-linecap:round;stroke-linejoin:round"
               d="m 418.27752,239.42962 a 7.7302118,7.7302118 0 0 0 -4.28319,0.7207 3.4249678,3.4249678 0 0 1 1.24967,0.65091 3.4249678,3.4249678 0 0 1 0.46456,4.8209 l -2.64298,-2.17796 2.64121,2.18013 a 3.4249678,3.4249678 0 0 1 -4.82095,0.46164 3.4249678,3.4249678 0 0 1 -0.91662,-1.18427 7.7302118,7.7302118 0 0 0 2.4762,8.16704 7.7302118,7.7302118 0 0 0 10.88131,-1.04199 l -5.96173,-4.92088 5.9658,4.91614 a 7.7302118,7.7302118 0 0 0 -1.04837,-10.88078 7.7302118,7.7302118 0 0 0 -4.00491,-1.71158 z" />
          </g>
        </g>
      </g>
      <path
         style="font-size:141.111px;font-family:'Arial Rounded MT Bold';-inkscape-font-specification:'Arial Rounded MT Bold, ';fill:#646464;stroke-width:1.006;stroke-linejoin:round;stroke-dasharray:1.006, 3.018;paint-order:markers fill stroke"
         d="m 296.39158,120.26696 v 25.01137 q 0,5.92556 -2.68718,8.88834 -2.68717,2.96278 -7.09689,2.96278 -4.27191,0 -6.95908,-2.96278 -2.61827,-2.96278 -2.61827,-8.88834 v -29.97231 q 0,-7.09689 -0.48232,-11.0243 -0.48231,-3.92743 -2.61827,-6.4079 -2.13595,-2.54936 -6.75238,-2.54936 -9.23285,0 -12.19563,6.33898 -2.89387,6.33899 -2.89387,18.19011 v 25.42478 q 0,5.85666 -2.68718,8.88834 -2.61827,2.96278 -6.95908,2.96278 -4.27192,0 -7.02799,-2.96278 -2.68717,-3.03168 -2.68717,-8.88834 V 91.46595 q 0,-5.30544 2.41156,-8.06151 2.48047,-2.75608 6.47677,-2.75608 3.85851,0 6.40788,2.61827 2.61827,2.54937 2.61827,7.09689 v 1.79145 q 4.89203,-5.85666 10.47308,-8.61273 5.58105,-2.75607 12.40233,-2.75607 7.09689,0 12.19563,2.82497 5.09874,2.82498 8.40603,8.54383 4.75422,-5.78775 10.19747,-8.54383 5.44325,-2.82497 12.05782,-2.82497 7.71701,0 13.29806,3.03168 5.58105,3.03168 8.33712,8.68163 2.41157,5.09874 2.41157,16.05416 v 36.72469 q 0,5.92556 -2.68717,8.88834 -2.68717,2.96278 -7.09689,2.96278 -4.27192,0 -7.02799,-2.96278 -2.68717,-3.03168 -2.68717,-8.88834 v -31.62595 q 0,-6.06336 -0.55122,-9.71517 -0.48231,-3.65182 -2.75607,-6.13229 -2.27376,-2.48046 -6.89019,-2.48046 -3.7207,0 -7.09689,2.20486 -3.30729,2.20486 -5.16764,5.92558 -2.06705,4.75423 -2.06705,16.81206 z m 132.70497,-1.37804 q 0,8.40603 -2.61827,15.50292 -2.61827,7.09689 -7.57921,12.19562 -4.96093,5.09874 -11.85112,7.85482 -6.89018,2.68717 -15.50291,2.68717 -8.54383,0 -15.36512,-2.75608 -6.82128,-2.75607 -11.85111,-7.85481 -4.96094,-5.16764 -7.57921,-12.12672 -2.54937,-7.02799 -2.54937,-15.50292 0,-8.54383 2.61827,-15.64073 2.61827,-7.09691 7.51031,-12.12675 4.89203,-5.02983 11.85111,-7.717 6.95909,-2.75608 15.36512,-2.75608 8.54383,0 15.50291,2.75608 6.95909,2.75607 11.92002,7.85481 4.96094,5.09873 7.51031,12.12674 2.61827,7.028 2.61827,15.50293 z m -18.87911,0 q 0,-11.50661 -5.09874,-17.91451 -5.02983,-6.40787 -13.57366,-6.40787 -5.51215,0 -9.71516,2.89387 -4.20302,2.82498 -6.47678,8.40606 -2.27376,5.58105 -2.27376,13.02245 0,7.3725 2.20486,12.88465 2.27376,5.51214 6.40787,8.47492 4.20301,2.89388 9.85297,2.89388 8.54383,0 13.57366,-6.40787 5.09874,-6.47677 5.09874,-17.84558 z m 33.69301,26.80282 V 64.11192 q 0,-5.64995 2.48047,-8.54383 2.54937,-2.89388 6.82128,-2.89388 4.27192,0 6.89019,2.89388 2.61827,2.82497 2.61827,8.54383 v 81.57982 q 0,5.71885 -2.68718,8.61273 -2.61827,2.82498 -6.82128,2.82498 -4.13411,0 -6.75238,-2.96278 -2.54937,-2.96278 -2.54937,-8.47493 z m 89.77911,0.68902 v -1.86035 q -3.7896,4.34082 -7.5103,7.09689 -3.6518,2.68717 -7.99262,4.06521 -4.27191,1.44694 -9.37065,1.44694 -6.75238,0 -12.54013,-2.82498 -5.71886,-2.89388 -9.92187,-8.19932 -4.20301,-5.30544 -6.40787,-12.47123 -2.13596,-7.1658 -2.13596,-15.50292 0,-17.6389 8.61273,-27.49187 8.61273,-9.85296 22.66871,-9.85296 8.13042,0 13.71147,2.82497 5.58105,2.75608 10.88649,8.54383 V 64.38752 q 0,-5.78775 2.27376,-8.75053 2.34266,-2.96278 6.61458,-2.96278 4.27191,0 6.54568,2.75607 2.34266,2.68718 2.34266,7.99262 v 82.95786 q 0,5.37434 -2.48047,8.06152 -2.48046,2.68717 -6.40787,2.68717 -3.8585,0 -6.40787,-2.75608 -2.48047,-2.82497 -2.48047,-7.99261 z m -37.00029,-27.62964 q 0,7.6481 2.34266,13.02245 2.41156,5.37434 6.54568,8.13041 4.13411,2.68718 9.02614,2.68718 4.96093,0 9.02614,-2.54937 4.13411,-2.61827 6.54568,-7.92371 2.48046,-5.37435 2.48046,-13.36696 0,-7.51031 -2.48046,-12.88465 -2.41157,-5.44328 -6.61458,-8.26825 -4.13411,-2.89388 -9.09505,-2.89388 -5.16763,0 -9.23284,2.96278 -4.06521,2.89388 -6.33897,8.40606 -2.20486,5.44324 -2.20486,12.67794 z m 92.32846,11.231 v 15.70962 q 0,5.71885 -2.68717,8.61273 -2.68718,2.82498 -6.82129,2.82498 -4.06521,0 -6.68348,-2.89388 -2.61827,-2.89388 -2.61827,-8.54383 V 93.3263 q 0,-12.67794 9.16395,-12.67794 4.68533,0 6.75238,2.96278 2.06706,2.96278 2.27376,8.75054 3.37619,-5.78776 6.89019,-8.75054 3.58289,-2.96278 9.50845,-2.96278 5.92556,0 11.50661,2.96278 5.58105,2.96278 5.58105,7.85481 0,3.44509 -2.41156,5.71886 -2.34267,2.20486 -5.09874,2.20486 -1.03353,0 -5.02984,-1.24024 -3.9274,-1.30913 -6.95908,-1.30913 -4.13411,0 -6.75238,2.20486 -2.61827,2.13596 -4.06521,6.4079 -1.44694,4.27191 -1.99816,10.19747 -0.55121,5.85666 -0.55121,14.33159 z m 88.46999,16.53644 V 144.107 q -3.37619,4.27191 -7.09689,7.16579 -3.7207,2.89388 -8.13041,4.27191 -4.40972,1.44694 -10.05967,1.44694 -6.82129,0 -12.26453,-2.82497 -5.37435,-2.82498 -8.33713,-7.78591 -3.51399,-5.99446 -3.51399,-17.22546 V 91.87936 q 0,-5.64995 2.54937,-8.40602 2.54936,-2.82498 6.75238,-2.82498 4.27191,0 6.89018,2.82498 2.61827,2.82497 2.61827,8.40602 v 30.11014 q 0,6.54568 1.10243,11.0243 1.10243,4.40972 3.92741,6.95909 2.89388,2.48046 7.78591,2.48046 4.75422,0 8.95724,-2.82497 4.20301,-2.82498 6.13226,-7.3725 1.58475,-3.99631 1.58475,-17.50107 V 91.87936 q 0,-5.58105 2.61827,-8.40602 2.61827,-2.82498 6.82128,-2.82498 4.20301,0 6.75238,2.82498 2.54937,2.75607 2.54937,8.40602 v 54.5014 q 0,5.37434 -2.48047,8.06152 -2.41156,2.68717 -6.27007,2.68717 -3.8585,0 -6.40787,-2.75608 -2.48047,-2.82497 -2.48047,-7.85481 z M 783.04534,94.42873 v 54.6392 q 0,9.37065 -1.99816,16.12303 -1.99815,6.75239 -6.40787,11.1621 -4.40972,4.40972 -11.57551,6.54568 -7.09689,2.13596 -17.70777,2.13596 -9.71517,0 -17.36327,-2.75608 -7.64811,-2.68717 -11.78222,-7.02799 -4.13411,-4.27191 -4.13411,-8.81943 0,-3.4451 2.34266,-5.64995 2.34267,-2.13596 5.64996,-2.13596 4.13411,0 7.23469,3.6518 1.51584,1.86035 3.10058,3.7207 1.65365,1.92925 3.5829,3.23838 1.99815,1.37804 4.75423,1.99816 2.75607,0.68902 6.33897,0.68902 7.30359,0 11.2999,-2.06706 4.06521,-1.99815 5.64995,-5.64995 1.65365,-3.6518 1.92926,-7.85481 0.2756,-4.13411 0.41341,-13.36696 -4.34082,6.06336 -10.05967,9.23285 -5.64996,3.16948 -13.50477,3.16948 -9.43955,0 -16.53644,-4.82313 -7.02799,-4.82313 -10.81759,-13.50476 -3.7896,-8.68163 -3.7896,-20.05044 0,-8.47493 2.27376,-15.29623 2.34266,-6.82129 6.61458,-11.50662 4.27191,-4.68533 9.85296,-7.02799 5.58105,-2.41156 12.26453,-2.41156 7.99261,0 13.84927,3.10058 5.85666,3.03168 10.88649,9.57736 v -2.54937 q 0,-4.89203 2.41157,-7.57921 2.41156,-2.68717 6.20117,-2.68717 5.44324,0 7.23469,3.5829 1.79145,3.51399 1.79145,10.19747 z m -54.50137,23.84007 q 0,11.43771 4.96094,17.29437 5.02983,5.85666 12.95355,5.85666 4.68532,0 8.81943,-2.48047 4.20302,-2.54937 6.82129,-7.57921 2.61827,-5.09873 2.61827,-12.33343 0,-11.50661 -5.09874,-17.9145 -5.02984,-6.40788 -13.29806,-6.40788 -8.06152,0 -12.95355,6.13226 -4.82313,6.1323 -4.82313,17.4322 z"
         id="text1"
         aria-label="moldrug" />
    </g>
  </g>
</svg>
