<?xml version="1.0" encoding="UTF-8" standalone="no"?>
<!-- Created with Inkscape (http://www.inkscape.org/) -->

<svg
   width="181.98734mm"
   height="192.83344mm"
   viewBox="0 0 181.98734 192.83344"
   version="1.1"
   id="svg1"
   sodipodi:docname="MolDrug-logo.svg"
   inkscape:version="1.3.2 (091e20e, 2023-11-25)"
   xmlns:inkscape="http://www.inkscape.org/namespaces/inkscape"
   xmlns:sodipodi="http://sodipodi.sourceforge.net/DTD/sodipodi-0.dtd"
   xmlns:xlink="http://www.w3.org/1999/xlink"
   xmlns="http://www.w3.org/2000/svg"
   xmlns:svg="http://www.w3.org/2000/svg">
  <sodipodi:namedview
     id="namedview1"
     pagecolor="#ffffff"
     bordercolor="#000000"
     borderopacity="0.25"
     inkscape:showpageshadow="2"
     inkscape:pageopacity="0.0"
     inkscape:pagecheckerboard="0"
     inkscape:deskcolor="#d1d1d1"
     inkscape:document-units="mm"
     inkscape:zoom="0.82616808"
     inkscape:cx="534.39489"
     inkscape:cy="734.71732"
     inkscape:window-width="1312"
     inkscape:window-height="449"
     inkscape:window-x="0"
     inkscape:window-y="38"
     inkscape:window-maximized="0"
     inkscape:current-layer="svg1" />
  <defs
     id="defs1">
    <linearGradient
       id="linearGradient6">
      <stop
         style="stop-color:#5a9fd4;stop-opacity:1;"
         offset="0"
         id="stop7" />
      <stop
         style="stop-color:#ffd43b;stop-opacity:1;"
         offset="1"
         id="stop8" />
    </linearGradient>
    <linearGradient
       id="linearGradient3">
      <stop
         style="stop-color:#5a9fd4;stop-opacity:1;"
         offset="0"
         id="stop2" />
      <stop
         style="stop-color:#49d5bc;stop-opacity:1;"
         offset="1"
         id="stop6" />
    </linearGradient>
    <linearGradient
       xlink:href="#linearGradient6"
       id="linearGradient1"
       gradientUnits="userSpaceOnUse"
       x1="289.0477"
       y1="298.00305"
       x2="471.03503"
       y2="298.00305"
       gradientTransform="translate(-11.112565,6.8792087)" />
    <linearGradient
       xlink:href="#linearGradient6"
       id="linearGradient2"
       gradientUnits="userSpaceOnUse"
       x1="289.0477"
       y1="298.00305"
       x2="471.03503"
       y2="298.00305"
       gradientTransform="translate(-11.112565,6.8792087)" />
    <linearGradient
       xlink:href="#linearGradient6"
       id="linearGradient4"
       gradientUnits="userSpaceOnUse"
       x1="289.0477"
       y1="298.00305"
       x2="471.03503"
       y2="298.00305"
       gradientTransform="translate(-11.112565,6.8792087)" />
    <linearGradient
       xlink:href="#linearGradient3"
       id="linearGradient5"
       gradientUnits="userSpaceOnUse"
       gradientTransform="translate(594.70188,249.45698)"
       x1="289.0477"
       y1="298.00305"
       x2="471.03503"
       y2="298.00305" />
  </defs>
  <g
     id="layer2"
     style="display:inline"
     transform="translate(-11.112565,-6.8792087)">
    <g
       id="g14">
      <path
         style="fill:#ffffff;stroke-width:9.3;stroke-linecap:round;stroke-linejoin:round"
         id="path1"
         d="M 75.791026,62.371656 A 18.516619,18.516619 0 0 1 50.352501,68.573987 18.516619,18.516619 0 0 1 44.144869,43.136755 18.516619,18.516619 0 0 1 69.580806,36.923822 18.516619,18.516619 0 0 1 75.79904,62.358463 L 59.969952,52.750908 Z" />
      <g
         id="g12"
         transform="matrix(-1,0,0,1,482.14759,-194.70712)"
         style="display:inline;fill:url(#linearGradient5)">
        <g
           id="g11"
           style="fill:url(#linearGradient4);fill-opacity:1">
          <path
             id="path10"
             style="display:inline;fill:url(#linearGradient1);fill-opacity:1"
             d="m 399.34875,201.59596 c -1.70827,0.049 -3.04555,0.28665 -3.94446,0.7674 -3.29035,2.22483 -0.95493,7.12186 -0.076,9.51105 1.30927,2.50564 2.23553,4.84718 2.88975,7.0931 0.68144,1.68759 1.26988,5.3622 -1.7446,5.55625 -4.26561,-0.65978 -8.74579,-0.88057 -13.18369,-1.0511 -4.65708,-0.0565 -9.08435,0.0241 -13.40435,0.24547 a 67.503952,74.275505 0 0 0 -8.47493,35.82985 67.503952,74.275505 0 0 0 6.44198,31.19241 c 4.05359,-0.10163 7.82753,-0.35253 10.76214,-1.89135 2.96291,-1.26845 4.09855,0.79657 4.81624,3.21995 1.09203,3.93586 -7.14783,-0.27799 -10.72389,4.85604 -1.2995,1.86561 -0.71683,3.31803 0.11523,5.33662 1.12625,2.73221 5.06165,2.36054 7.78454,2.21434 4.71409,-0.74454 9.53926,-0.93424 14.19655,0.23616 1.97772,0.49701 4.00208,0.87954 5.94951,2.49339 5.83159,4.83267 11.67874,-8.13651 2.76779,-9.90482 -2.42927,-0.3813 -4.60984,-1.10013 -6.36602,-2.17817 -1.06516,-1.01361 -9.3397,-8.31167 -3.50986,-12.25868 3.51965,-2.38296 3.35003,-3.76148 5.60947,-3.80855 4.50312,-0.0938 4.89942,3.62586 11.48612,7.11739 2.5525,1.35305 14.71754,3.94666 22.04982,3.73931 5.75797,-0.19058 11.3231,-0.81748 16.7752,-2.0066 4.92364,-1.2081 10.04336,-2.4154 15.30915,-2.4014 4.32564,-4.27184 5.6495,-18.8946 3.47885,-27.91199 5.01324,-6.05033 2.73314,-16.97482 -4.63641,-20.39307 -4.77159,-1.73177 -7.1258,-10.48101 -10.74818,-14.56965 -2.79487,-3.26861 -6.40926,-6.96224 -9.77253,-8.95346 -4.80182,-3.42575 -10.4326,-5.60769 -15.89618,-7.4905 -3.07537,-0.85363 -5.6525,-1.65821 -8.70025,-2.18592 -7.03968,-1.23683 -13.09227,-2.23473 -17.42167,-2.39158 -0.64942,-0.0235 -1.25993,-0.0282 -1.82935,-0.0119 z m -33.33388,22.36711 c -14.67975,1.16923 -27.88977,4.77785 -41.89047,14.39292 -6.75867,5.29892 -15.40333,9.13352 -26.17876,33.27549 a 68.850447,62.573486 52.248525 0 0 12.77803,25.39018 68.850447,62.573486 52.248525 0 0 18.03094,16.53646 c 0.1188,-0.35264 0.21862,-0.7128 0.35502,-1.05833 1.35486,-4.37743 7.02578,-4.57461 10.65464,-3.52072 4.64242,1.63291 5.23388,7.57589 2.58073,11.18278 -2.3152,3.67638 -5.69697,11.18075 1.54874,12.18169 4.4762,0.61836 6.31292,-4.35233 7.22023,-7.27604 1.15273,-2.8752 3.80729,-6.27466 5.65443,-8.51008 2.09442,-2.88231 6.649,-4.69423 6.79804,-8.51421 0.64249,-3.74813 -4.41125,-5.98409 -7.06107,-4.01836 -2.05983,1.25067 -4.84899,2.77483 -6.92567,0.66973 -1.73317,-2.01282 -3.75237,-4.27627 -6.60374,-6.08542 -2.21277,-1.40401 2.30786,-3.34129 3.89744,-4.18424 1.95116,-0.71854 4.22919,-1.50875 6.38566,-2.17041 3.46143,-1.09165 7.15952,-1.32351 10.76575,-1.41903 a 38.724834,42.533836 0 0 1 -14.041,-32.55719 38.724834,42.533836 0 0 1 16.03106,-34.31522 z m 56.07254,5.71955 a 17.510006,17.510006 0 0 1 17.51005,17.51004 17.510006,17.510006 0 0 1 -17.51005,17.51005 17.510006,17.510006 0 0 1 -17.51004,-17.51005 17.510006,17.510006 0 0 1 17.51004,-17.51004 z M 293.2622,283.12897 c -0.33595,0.89482 -0.66536,1.71991 -1.0051,2.65617 -7.72437,22.42795 -1.10604,53.11042 15.56029,76.15918 a 49.468773,54.431156 86.039005 0 0 18.30586,1.62574 49.468773,54.431156 86.039005 0 0 16.9323,-3.81321 c -8.59978,-7.32092 -9.7631,-9.9277 -13.34493,-18.54977 -1.09414,-2.79073 -1.89204,-6.38968 -2.31148,-9.93324 -0.21928,-4.27351 -0.38248,-8.81251 0.26148,-13.1067 a 39.427179,35.896385 52.248525 0 1 -26.03252,-15.59129 39.427179,35.896385 52.248525 0 1 -8.3659,-19.44688 z m 95.24794,36.03501 c -26.33264,-0.46622 -31.56988,30.30095 -16.78503,41.14891 a 18.409509,20.256231 25.102915 0 0 2.41123,-3.97288 18.409509,20.256231 25.102915 0 0 1.68775,-5.40071 c -4.64257,-5.90674 -4.68588,-15.37641 3.12436,-19.25619 6.14964,-2.25545 13.54573,-2.66384 19.51922,0.0739 2.9848,1.25897 4.96355,3.84445 6.19393,6.70864 a 20.344945,18.523009 13.669395 0 1 8.37107,0.35088 20.344945,18.523009 13.669395 0 1 3.86953,1.3534 c -2.59821,-8.49074 -7.56843,-15.52346 -14.43168,-18.28002 -5.17553,-1.80994 -9.82773,-2.65276 -13.96038,-2.72593 z m 17.50229,23.97528 c 0.055,0.32755 0.12143,0.66034 0.16019,0.97927 0.66079,4.44828 0.19535,15.15407 -7.51995,22.8198 a 18.523009,20.344945 19.548673 0 1 0.63355,16.01452 18.523009,20.344945 19.548673 0 1 -2.37608,4.71858 c 1.58205,-0.68085 3.1621,-1.35062 4.76663,-2.14406 7.99578,-3.95376 12.60124,-11.43852 14.13403,-15.08125 3.0823,-7.32523 3.7871,-15.9245 2.54816,-23.90552 a 35.527741,32.288745 13.669395 0 0 -7.20783,-2.55643 35.527741,32.288745 13.669395 0 0 -5.1387,-0.84491 z m -11.45253,2.90835 c -2.42319,0.4017 -2.90651,4.28961 -4.41937,6.83008 -1.46135,3.53522 -9.00195,2.50054 -12.17445,0.23564 a 10.56094,11.599722 25.102915 0 1 -1.15497,4.86224 10.56094,11.599722 25.102915 0 1 -2.7466,3.77754 c 0.82671,0.43228 1.68476,0.82935 2.60862,1.14619 3.92634,1.6876 8.85111,1.4018 12.75995,-0.27441 9.01595,-3.83777 11.58329,-14.87769 6.29264,-16.52198 -0.43401,-0.099 -0.81965,-0.11268 -1.16582,-0.0553 z m -48.00948,16.61914 a 28.378635,31.169978 86.039005 0 1 -20.77702,9.3214 28.378635,31.169978 86.039005 0 1 -10.42521,-0.90951 c 17.68998,18.80128 43.26161,29.38818 73.52626,19.66082 a 32.288745,35.527741 19.548673 0 0 5.46427,-10.18801 32.288745,35.527741 19.548673 0 0 2.16163,-11.7135 c -2.42165,1.90115 -5.38327,3.53539 -9.05216,4.69946 -3.11068,1.13956 -6.52946,1.5815 -10.24589,1.77767 -5.24241,-0.43253 -10.88657,-1.71177 -15.49156,-3.70004 -5.41315,-2.33711 -10.37475,-5.58617 -15.16032,-8.94829 z" />
          <path
             id="path11"
             style="display:inline;fill:url(#linearGradient2);fill-opacity:1;stroke-width:4.66771;stroke-linecap:round;stroke-linejoin:round"
             d="m 418.27752,239.42962 a 7.7302118,7.7302118 0 0 0 -4.28319,0.7207 3.4249678,3.4249678 0 0 1 1.24967,0.65091 3.4249678,3.4249678 0 0 1 0.46456,4.8209 l -2.64298,-2.17796 2.64121,2.18013 a 3.4249678,3.4249678 0 0 1 -4.82095,0.46164 3.4249678,3.4249678 0 0 1 -0.91662,-1.18427 7.7302118,7.7302118 0 0 0 2.4762,8.16704 7.7302118,7.7302118 0 0 0 10.88131,-1.04199 l -5.96173,-4.92088 5.9658,4.91614 a 7.7302118,7.7302118 0 0 0 -1.04837,-10.88078 7.7302118,7.7302118 0 0 0 -4.00491,-1.71158 z" />
        </g>
      </g>
    </g>
  </g>
</svg>
